<svg xmlns="http://www.w3.org/2000/svg" width="14" height="11.75"><path d="M14 1.37a5.57 5.57 0 01-1.65.47A3.017 3.017 0 0013.62.2a5.779 5.779 0 01-1.83.72 2.821 2.821 0 00-2.1-.94 2.872 2.872 0 00-2.04.88 2.957 2.957 0 00-.83 2.09 3.078 3.078 0 00.07.68A8.1 8.1 0 01.97.53a3.037 3.037 0 00.89 3.96 2.864 2.864 0 01-1.3-.37v.04a2.95 2.95 0 002.31 2.91 3.007 3.007 0 01-1.3.05 2.9 2.9 0 002.68 2.06 5.659 5.659 0 01-3.56 1.27.914.914 0 01-.69-.04 7.951 7.951 0 004.4 1.33 8.089 8.089 0 005.82-2.48 8.414 8.414 0 002.35-5.96c0-.13 0-.26-.01-.39A5.711 5.711 0 0014 1.37z"/></svg>