<svg xmlns="http://www.w3.org/2000/svg" viewBox="0 0 512 512"><path d="M512 298.333v-84.667l-69.42-13.675a193.66 193.66 0 00-15.083-36.309l38.724-58.087-59.817-59.815-58.086 38.724a193.575 193.575 0 00-36.31-15.083L298.333 0h-84.666l-13.676 69.42a193.658 193.658 0 00-36.31 15.083L105.596 45.78 45.78 105.596l38.724 58.087a193.66 193.66 0 00-15.083 36.309L0 213.667v84.667l69.42 13.676a193.688 193.688 0 0015.083 36.309l-38.724 58.087 59.816 59.816 58.086-38.724a193.63 193.63 0 0036.31 15.083L213.667 512h84.666l13.676-69.42a193.63 193.63 0 0036.31-15.083l58.086 38.724 59.816-59.816-38.724-58.087a193.66 193.66 0 0015.083-36.309L512 298.333zm-84.383 104.249l-25.035 25.035-53.278-35.519c-27.034 16.387-35.993 19.506-63.088 26.2L273.667 482h-35.334l-12.549-63.702c-30.833-7.617-39.367-11.822-63.088-26.2l-53.278 35.519-25.035-25.035 35.519-53.278c-16.499-27.218-19.557-36.212-26.2-63.088L30 273.667v-35.333l63.701-12.549c6.552-26.51 9.554-35.628 26.2-63.088l-35.519-53.278 25.035-25.035 53.278 35.518c27.256-16.52 36.263-19.572 63.088-26.2L238.333 30h35.334l12.549 63.702c30.893 7.633 39.418 11.852 63.088 26.2l53.278-35.518 25.035 25.035-35.519 53.278c16.354 26.979 19.49 35.938 26.2 63.088L482 238.333v35.333l-63.701 12.549c-7.636 30.894-11.833 39.386-26.2 63.088l35.518 53.279z"/><path d="M256 151c-57.897 0-105 47.103-105 105s47.103 105 105 105 105-47.103 105-105-47.103-105-105-105zm0 180c-41.355 0-75-33.645-75-75s33.645-75 75-75 75 33.645 75 75-33.645 75-75 75z"/></svg>